<?xml version="1.0" encoding="UTF-8" standalone="no"?>
<svg
   width="122.00015"
   height="125.00012"
   viewBox="0 0 122.00015 125.00012"
   fill="none"
   version="1.1"
   id="svg3"
   xmlns="http://www.w3.org/2000/svg"
   xmlns:svg="http://www.w3.org/2000/svg">
  <defs
     id="defs3" />
  <path
     d="m 77.092026,98.520963 c 18.166,-2.018 35.293004,-11.698 44.723004,-27.854 -4.466,39.959997 -48.162004,65.217997 -83.829204,49.710997 -3.2866,-1.425 -6.1156,-3.796 -8.057,-6.844 -8.0154,-12.586 -10.6502,-28.600997 -6.8644,-43.134997 10.8166,18.668 32.8104,30.110997 54.0276,28.122 z"
     fill="#ffffff"
     id="path1" />
  <path
     d="m 22.401226,58.673463 c -7.3637,17.0165 -7.6826,36.9405 1.3451,53.336497 -31.7704,-23.901997 -31.4237,-75.052197 -0.3883,-98.715097 2.8706,-2.1871 6.282,-3.4852997 9.8598,-3.6827997 14.7134,-0.7761 29.6626,4.9103997 40.1462,15.5071997 -21.3003,0.2116 -42.046,13.8563 -50.9628,33.5542 z"
     fill="#ffffff"
     id="path2" />
  <path
     d="m 83.637026,30.355163 c -10.747,-14.9851 -27.5684,-25.1867997 -45.9983,-25.4971997 35.6253,-16.1704003 79.446304,10.0464997 84.217304,48.8073997 0.444,3.5981 -0.139,7.2668 -1.734,10.5121 -6.656,13.5175 -18.998,24.0015 -33.420004,27.8815 10.567,-19.599 9.263,-43.5439 -3.065,-61.7038 z"
     fill="#ffffff"
     id="path3" />
</svg>
